inDegrees=no
num_controls=7
num_derivatives=13
num_iterations=171
num_multipliers=7
num_parameters=0
num_slacks=7
num_states=26
objective=4.412035
objective_accelerations=0.227647
objective_balance=0.045155
objective_effort=0.311665
objective_height=3.753988
objective_ligament=0.073580
solver_duration=1742.986192
status=Solve_Succeeded
success=true
DataType=double
version=3
OpenSimVersion=4.4-2022-07-23-0e9fedc
endheader
time	/jointset/ground_pelvis/pelvis_tilt/value	/jointset/ground_pelvis/pelvis_tx/value	/jointset/ground_pelvis/pelvis_ty/value	/jointset/hip_l/hip_flexion_l/value	/jointset/hip_l/hip_adduction_l/value	/jointset/hip_l/hip_rotation_l/value	/jointset/back/lumbar_extension/value	/jointset/patellofemoral_l/patellar_flexion_l/value	/jointset/knee_l/knee_flexion_l/value	/jointset/knee_l/knee_adduction_l/value	/jointset/knee_l/knee_rotation_l/value	/jointset/ankle_l/ankle_angle_l/value	/jointset/subtalar_l/subtalar_angle_l/value	/jointset/ground_pelvis/pelvis_tilt/speed	/jointset/ground_pelvis/pelvis_tx/speed	/jointset/ground_pelvis/pelvis_ty/speed	/jointset/hip_l/hip_flexion_l/speed	/jointset/hip_l/hip_adduction_l/speed	/jointset/hip_l/hip_rotation_l/speed	/jointset/back/lumbar_extension/speed	/jointset/patellofemoral_l/patellar_flexion_l/speed	/jointset/knee_l/knee_flexion_l/speed	/jointset/knee_l/knee_adduction_l/speed	/jointset/knee_l/knee_rotation_l/speed	/jointset/ankle_l/ankle_angle_l/speed	/jointset/subtalar_l/subtalar_angle_l/speed	/forceset/tau_hip_flexion_l	/forceset/tau_hip_adduction_l	/forceset/tau_hip_rotation_l	/forceset/tau_knee_flexion_l	/forceset/tau_ankle_angle_l	/forceset/tau_subtalar_angle_l	/forceset/tau_lumbar_extension	lambda_cid13_p0	lambda_cid13_p1	lambda_cid13_p2	lambda_cid13_p3	lambda_cid13_p4	lambda_cid13_p5	lambda_cid14_p0	/jointset/ground_pelvis/pelvis_tilt/accel	/jointset/ground_pelvis/pelvis_tx/accel	/jointset/ground_pelvis/pelvis_ty/accel	/jointset/hip_l/hip_flexion_l/accel	/jointset/hip_l/hip_adduction_l/accel	/jointset/hip_l/hip_rotation_l/accel	/jointset/back/lumbar_extension/accel	/jointset/patellofemoral_l/patellar_flexion_l/accel	/jointset/knee_l/knee_flexion_l/accel	/jointset/knee_l/knee_adduction_l/accel	/jointset/knee_l/knee_rotation_l/accel	/jointset/ankle_l/ankle_angle_l/accel	/jointset/subtalar_l/subtalar_angle_l/accel	gamma_cid13_p0	gamma_cid13_p1	gamma_cid13_p2	gamma_cid13_p3	gamma_cid13_p4	gamma_cid13_p5	gamma_cid14_p0
1	0.182313920890921	0.0521285349273003	0.8035710003367738	0.6139673885429079	-0.3487259998443317	-0.0207446670572134	-0.95993107642816	1.148110299528398	1.148110299528394	-0.09347591086495317	-0.1745327362183499	0.4363322952754937	0.1143695641712725	0.1222915168456812	0.0322226364527396	0.05159172777080451	-0.3052774944281561	0.00117851532624863	-0.07020188503959141	-0.005537983100671617	-0.1681870963065416	-0.1681870963065523	0.001813774252255506	-4.460100262959724e-06	0.004605192592568324	0.006168675165249113	-0.1669902442465076	0.06468745811115106	-0.005288715696344766	-0.3649396000652735	-0.1079729409802962	0.03606755569398303	0.314297830216637	-82.3293643401289	-2.123249672010546	0.8829551062119658	18.50789182272093	-767.1860551905663	-76.54716214894563	-2.091674949957939	-0.2718672988142772	-0.08834116481848622	0.8763323851339243	-2.088852345428873	0.1971330839001173	-1.258530493876978	1.092823375182385	-3.949452556960792	-3.949452556960929	-0.1330355654240733	-0.005437805567336322	-1.863961431141314	-0.7084205681767631	-8.653888578698071e-09	1.270439985416154e-08	3.226876907298516e-08	7.522964235770599e-09	-2.294436516964878e-08	3.313498208132105e-08	-6.357077051178332e-09
1.01	0.1835227815879288	0.05244638627756217	0.8041305424458282	0.610811105764043	-0.3487040417610863	-0.02150992652479924	-0.9599310885968813	1.14623149184645	1.146231491846442	-0.09346345788190297	-0.1745327004974712	0.4362853676545949	0.1143964803895768	0.1194660863411295	0.03135135303395885	0.06030767845365599	-0.3259528320924391	0.00321692220680378	-0.08284316456800844	0.005568784773901703	-0.2075660548912096	-0.2075660548912023	0.0006748069619264307	9.555466553707701e-06	-0.01399262498467646	-0.0007798797507293082	-0.1662802330488825	0.06479267945565083	-0.005334196954947574	-0.3643793157694668	-0.1083017985257658	0.03610283220085587	0.3139197559378749	-82.41060860242487	-2.143550100338873	0.908128716695067	18.4893724672851	-766.9015337687466	-76.54920286218905	-2.133791746900613	-0.2900619983611117	-0.08596206361164607	0.8678685099892317	-2.052941290543234	0.2077631974447139	-1.265908056805594	1.124603908561582	-3.930858034374941	-3.930858034372392	-0.1046328142605865	0.004523889211575347	-1.857979235201584	-0.6872461614322395	-1.21685812235875e-08	2.905497030547269e-09	4.799667254694221e-08	9.737134448642812e-09	-2.776098518904203e-08	2.05715862850951e-08	-8.460057299470202e-09
1.02	0.1847029517654785	0.05275563676699435	0.804776972481737	0.6074488562457738	-0.3486615858675899	-0.02240139506254453	-0.9598190340107038	1.143959146473626	1.14395914647362	-0.09346245567243332	-0.1745325840906689	0.4360524043950734	0.1143540764170945	0.1165534129531279	0.03050246428680198	0.06896931314169778	-0.3464708423013637	0.005278077379810774	-0.09544369907568408	0.01687556924716533	-0.2468946344820856	-0.2468946344820605	-0.0004763804653299831	1.167708958448051e-05	-0.03260193512934325	-0.007695362991661869	-0.165570221851446	0.06489790080017356	-0.005379678213753994	-0.3638190314737014	-0.1086306560712133	0.03613810870778438	0.313541681658968	-82.50529599999476	-2.161805913494862	0.9333289233012281	18.51715043206222	-766.8012158766223	-76.55149679000179	-2.185284517950634	-0.2893158755041844	-0.08386223049380237	0.8654691861719924	-2.057386854357118	0.2016827423904984	-1.250381489728708	1.132826694920364	-3.939376758202473	-3.939376758202644	-0.1354795928095298	-0.007816594324523876	-1.866259944625879	-0.701806233167657	-1.524112947817538e-08	-7.035785435814259e-09	6.236449762295219e-08	1.130686345343516e-08	-3.227692309965023e-08	7.536526545497635e-09	-1.031324986609365e-08
1.03	0.1858532663988094	0.05305665447490455	0.8055097269927005	0.6038823146980445	-0.348598420290851	-0.02341862096281852	-0.959592028828153	1.141293722464687	1.141293722464638	-0.09347310252596562	-0.1745324764033772	0.4356334378424321	0.1142427694556921	0.1134655520145254	0.02971935577697235	0.07757059928619461	-0.3668013848591966	0.007357497848830978	-0.107993587121352	0.02864756148994855	-0.2861867606702388	-0.2861867606702337	-0.001659641117622055	9.723009425335344e-06	-0.05117860640298438	-0.01455153548653279	-0.1652164039682502	0.06501678148231341	-0.005437059027580213	-0.3630719711100658	-0.1087760070527835	0.03620495240520799	0.3136686000712297	-82.53761509221503	-2.21611926876839	0.9773314350257964	18.29569559220705	-766.8480444762508	-76.57644455771619	-2.246433850935655	-0.3251160092046458	-0.07279080580546508	0.8558024785708006	-2.015476893509658	0.211432716220556	-1.256120644380803	1.21769962304136	-3.923617110004125	-3.923617110007211	-0.1107526586386414	0.003608614644042396	-1.85145765886678	-0.6753548535772972	-1.830916605531121e-08	-1.697852075567321e-08	7.67184443479627e-08	1.287001652753282e-08	-3.678979282547491e-08	-5.503346091481184e-09	-1.216389357882253e-08
